<svg xmlns="http://www.w3.org/2000/svg" viewBox="0 0 640 480">
  <path fill="#cc0001" d="M0 0h640v480H0z"/>
  <path fill="#fff" d="M0 34.3h640v34.3H0zm0 68.6h640v34.3H0zm0 68.6h640v34.3H0zm0 68.6h640v34.3H0zm0 68.5h640v34.3H0zm0 68.6h640v34.3H0zm0 68.6h640v34.3H0z"/>
  <path fill="#010066" d="M0 0h320v274.3H0z"/>
  <path fill="#fc0" d="M160 38.6a98.6 98.6 0 1 0 0 197.1 98.6 98.6 0 0 1 0-197.1zm22.4 20.3 7 36.3 35.8-10.4-18.7 32.1 36.8 6.5-30.8 21.2 27.6 25-36.8 5.7 11.2 35.4-33-17.1-8.5 35.9-19.4-31.5-24.8 27.7-1.1-37.2-34.3 14.5 17.5-32.8-35.8-10.5 31.8-19.5-29.2-23.2 37.1-3.6-13.4-34.8 32 19 6.8-36.5 21.2 30.5z"/>
</svg>
